<svg id="Layer_1" data-name="Layer 1" xmlns="http://www.w3.org/2000/svg" viewBox="0 0 36 49">
<defs><style>.cls-1{fill:#fff;}.cls-2{fill:rgb(3, 83, 120);}</style>
</defs><title>pin</title>
<circle class="cls-1" cx="18" cy="18.35" r="15.27"/>
<path class="cls-2" d="M18.26,0a18.19,18.19,0,0,0-18,18.37c0,7.41,2.52,9.48,16.15,29.64a2.22,2.22,0,0,0,3.7,0C33.73,27.85,36.26,25.78,36.26,18.37A18.19,18.19,0,0,0,18.26,0Zm0,33.09A14.57,14.57,0,0,1,3.84,18.37,14.57,14.57,0,0,1,18.26,3.66,14.57,14.57,0,0,1,32.67,18.37,14.57,14.57,0,0,1,18.26,33.09ZM25.87,8.74H13.29a3.72,3.72,0,0,0-3.68,3.75V25a3.72,3.72,0,0,0,3.68,3.76H25.87a.93.93,0,0,0,.92-.94v-.63a.94.94,0,0,0-.34-.73,8.94,8.94,0,0,1,0-2.92.94.94,0,0,0,.34-.73V9.67A.92.92,0,0,0,25.87,8.74ZM14.52,14a.23.23,0,0,1,.23-.23h8.13a.23.23,0,0,1,.23.23v.78a.23.23,0,0,1-.23.24H14.75a.23.23,0,0,1-.23-.24Zm0,2.51a.23.23,0,0,1,.23-.24h8.13a.23.23,0,0,1,.23.24v.78a.23.23,0,0,1-.23.23H14.75a.23.23,0,0,1-.23-.23Zm9.72,9.78H13.29a1.25,1.25,0,0,1,0-2.5h11A14.91,14.91,0,0,0,24.24,26.27Z" transform="translate(-0.26)"/>
</svg>